<?xml version="1.0" standalone="no"?>
<!DOCTYPE svg PUBLIC "-//W3C//DTD SVG 20010904//EN"
 "http://www.w3.org/TR/2001/REC-SVG-20010904/DTD/svg10.dtd">
<svg version="1.0" xmlns="http://www.w3.org/2000/svg"
 width="600.000000pt" height="150.000000pt" viewBox="0 0 600.000000 150.000000"
 preserveAspectRatio="xMidYMid meet">
<metadata>
Created by potrace 1.16, written by Peter Selinger 2001-2019
</metadata>
<g transform="translate(0.000000,150.000000) scale(0.100000,-0.100000)"
fill="#000000" stroke="none">
<path d="M406 1114 l-26 -27 0 -212 0 -212 26 -27 27 -26 933 0 934 0 0 -144
c0 -141 0 -144 26 -170 l27 -26 647 0 647 0 27 26 c26 26 26 29 26 170 l0 144
934 0 933 0 27 26 26 27 0 212 0 212 -26 27 -27 26 -2567 0 -2567 0 -27 -26z"/>
</g>
</svg>
